<svg id="Capa_1" enable-background="new 0 0 512 512" height="512" viewBox="0 0 512 512" width="512" xmlns="http://www.w3.org/2000/svg"><g><g><path d="m8.05 369.398h132.876v43.278h-132.876z" fill="#b3dafe"/></g><g><path d="m8.05 278.198h132.876v43.278h-132.876z" fill="#b3dafe"/></g><g><path d="m371.074 278.198h132.876v43.278h-132.876z" fill="#b3dafe" transform="matrix(-1 0 0 -1 875.023 599.673)"/></g><g><path d="m253.768 198.715-115.027 35.737 115.027 35.737 115.027-35.737z" fill="#fedba6"/></g><g><path d="m368.796 234.452-115.027 35.74-23.97-7.446 84.973-26.398c1.862-.578 1.862-3.214 0-3.792l-84.973-26.398 23.97-7.446z" fill="#fece85"/></g><g><path d="m187.33 108.509h132.876v43.278h-132.876z" fill="#b3dafe"/></g><g><path d="m300.189 108.509h20.017v43.278h-20.017z" fill="#8ac9fe"/></g><g><path d="m483.933 278.198h20.017v43.278h-20.017z" fill="#8ac9fe"/></g><g><path d="m120.909 278.198h20.017v43.278h-20.017z" fill="#8ac9fe"/></g><g><path d="m120.909 369.398h20.017v43.278h-20.017z" fill="#8ac9fe"/></g><g><path d="m103.858 504.494h-58.74c-11.887 0-21.523-9.636-21.523-21.523v-.692c0-11.887 9.636-21.523 21.523-21.523h58.74c11.887 0 21.523 9.636 21.523 21.523v.692c0 11.887-9.636 21.523-21.523 21.523z" fill="#fd8087"/></g><g><path d="m466.882 412.985h-58.74c-11.887 0-21.523-9.636-21.523-21.523v-.692c0-11.887 9.636-21.523 21.523-21.523h58.74c11.887 0 21.523 9.636 21.523 21.523v.692c-.001 11.887-9.637 21.523-21.523 21.523z" fill="#fd8087"/></g><g><path d="m283.138 51.244h-58.74c-11.887 0-21.523-9.636-21.523-21.523v-.692c0-11.887 9.636-21.523 21.523-21.523h58.74c11.887 0 21.523 9.636 21.523 21.523v.692c0 11.887-9.636 21.523-21.523 21.523z" fill="#fd8087"/></g><g><path d="m304.661 29.028v.691c0 11.89-9.638 21.528-21.528 21.528h-20.017c11.89 0 21.528-9.638 21.528-21.528v-.691c0-11.89-9.638-21.518-21.528-21.518h20.017c11.89 0 21.528 9.628 21.528 21.518z" fill="#fe646f"/></g><g><path d="m488.404 390.766v.691c0 11.89-9.638 21.528-21.528 21.528h-20.017c11.89 0 21.528-9.638 21.528-21.528v-.691c0-11.89-9.638-21.518-21.528-21.518h20.017c11.89 0 21.528 9.628 21.528 21.518z" fill="#fe646f"/></g><g><path d="m125.381 482.275v.691c0 11.89-9.638 21.528-21.528 21.528h-20.017c11.89 0 21.528-9.638 21.528-21.528v-.691c0-11.89-9.638-21.518-21.528-21.518h20.017c11.89 0 21.528 9.628 21.528 21.518z" fill="#fe646f"/></g><path d="m503.949 270.691h-58.932v-36.239c0-4.146-3.36-7.506-7.506-7.506h-67.577l-108.66-33.759v-33.894h58.932c4.146 0 7.506-3.361 7.506-7.506v-43.278c0-4.146-3.36-7.506-7.506-7.506h-58.932v-42.253h21.864c.948 0 1.896-.046 2.84-.138 7.234-.706 14.035-4.199 18.86-9.628 4.924-5.541 7.337-12.603 7.329-19.955 0-16.007-13.022-29.029-29.029-29.029 0 0-58.732 0-58.74 0-7.28 0-14.388 2.799-19.725 7.749-5.323 4.937-8.666 11.804-9.219 19.047-.578 7.564 1.523 15.128 6.31 21.083 4.544 5.654 11.159 9.485 18.338 10.555 1.422.212 2.859.317 4.297.317h21.863v42.253h-58.932c-4.146 0-7.506 3.361-7.506 7.506v43.278c0 4.146 3.361 7.506 7.506 7.506h58.931v33.894l-108.659 33.758h-63.114c-4.146 0-7.506 3.361-7.506 7.506v36.239h-58.931c-4.146 0-7.506 3.361-7.506 7.506v43.278c0 4.146 3.361 7.506 7.506 7.506h58.931v32.909h-58.931c-4.146 0-7.506 3.361-7.506 7.506v43.278c0 4.146 3.361 7.506 7.506 7.506h58.931v33.068h-21.863c-16.007 0-29.029 13.022-29.029 29.029 0 8.4 3.201 16.391 9.456 22.111 5.319 4.867 12.363 7.612 19.573 7.612h58.74c7.168 0 14.175-2.713 19.483-7.527 6.317-5.729 9.546-13.795 9.546-22.193 0-16.007-13.022-29.029-29.029-29.029h-21.864v-33.068h58.932c4.146 0 7.506-3.361 7.506-7.506v-43.278c0-4.146-3.361-7.506-7.506-7.506h-58.932v-32.909h58.932c4.146 0 7.506-3.361 7.506-7.506v-43.278c0-4.146-3.361-7.506-7.506-7.506h-58.932v-28.732h55.608l48.871 15.183c3.958 1.232 8.166-.981 9.395-4.941 1.23-3.959-.982-8.165-4.941-9.395l-26.886-8.353 89.726-27.877 89.727 27.877-89.727 27.876-29.39-9.13c-3.957-1.23-8.165.982-9.395 4.941s.982 8.166 4.941 9.395c0 0 31.604 9.818 31.617 9.822 1.412.439 2.994.454 4.454 0l113.939-35.398h60.071v28.732h-58.931c-4.146 0-7.506 3.361-7.506 7.506v43.278c0 4.146 3.36 7.506 7.506 7.506h58.931v32.76s-21.853 0-21.863 0c-9.044 0-17.715 4.345-23.167 11.556-1.989 2.631-3.528 5.6-4.521 8.745-3.002 9.503-.998 20.312 5.372 27.965 5.481 6.585 13.744 10.484 22.317 10.484h3.696c4.146 0 7.506-3.361 7.506-7.506s-3.36-7.506-7.506-7.506h-3.696c-9.932 0-16.456-10.298-13.205-19.407 1.916-5.37 7.481-9.317 13.206-9.317h58.74c7.727 0 14.014 6.286 14.016 14.013.001 7.882-5.846 14.711-14.016 14.711h-20.023c-4.146 0-7.506 3.361-7.506 7.506s3.36 7.506 7.506 7.506h20.023c6.51 0 12.909-2.231 18.009-6.277 7.213-5.721 11.013-14.349 11.02-23.444 0-16.006-13.022-29.029-29.029-29.029h-21.864v-32.76h58.932c4.146 0 7.506-3.361 7.506-7.506v-43.278c-.002-4.148-3.362-7.509-7.509-7.509zm-400.091 197.572c3.926.001 7.727 1.69 10.368 4.594 5.849 6.431 4.401 17.207-2.881 21.935-2.231 1.448-4.844 2.195-7.487 2.195-.016 0-58.74 0-58.74 0-8.19 0-14.016-6.867-14.016-14.708 0-7.729 6.288-14.016 14.016-14.016zm29.562-91.359v28.266h-117.863v-28.266zm0-91.2v28.266h-117.863v-28.266zm90.978-241.967c-.305 0-.61-.01-.914-.029-7.794-.504-13.098-7.142-13.102-14.679 0-7.729 6.288-14.016 14.016-14.016h58.74c7.728 0 14.016 6.288 14.016 14.016 0 7.461-5.23 14.106-12.989 14.671-.342.025-.684.037-1.027.037 0 0-58.676 0-58.74 0zm-29.561 100.544v-28.266h117.863v28.266zm301.606 169.688h-117.862v-28.266h117.863v28.266z"/></g></svg>