<svg id="Capa_1" enable-background="new 0 0 512 512" height="512" viewBox="0 0 512 512" width="512" xmlns="http://www.w3.org/2000/svg"><g><g><path d="m292.45 389.168h-36.45-36.45s-6.552 47.912-21.294 72.416h57.744 57.744c-14.742-24.504-21.294-72.416-21.294-72.416z" fill="#cecece"/></g><g><path d="m313.744 461.589h-21.328c-14.749-24.507-21.298-72.423-21.298-72.423h21.328s6.56 47.915 21.298 72.423z" fill="#bfbfbf"/></g><g><path d="m485.354 389.168h-458.708c-10.574 0-19.146-8.572-19.146-19.146v-300.46c0-10.574 8.572-19.146 19.146-19.146h458.709c10.574 0 19.146 8.572 19.146 19.146v300.46c0 10.574-8.572 19.146-19.147 19.146z" fill="#cecece"/></g><g><path d="m485.354 389.168h-458.708c-10.574 0-19.146-8.572-19.146-19.146v-30.446h497.001v30.446c0 10.574-8.572 19.146-19.147 19.146z" fill="#9c9c9c"/></g><g><path d="m504.504 69.559v300.459c0 10.579-8.579 19.148-19.148 19.148h-19.998c10.569 0 19.148-8.569 19.148-19.148v-300.459c0-10.569-8.579-19.148-19.148-19.148h19.998c10.569 0 19.148 8.579 19.148 19.148z" fill="#bfbfbf"/></g><g><path d="m504.504 339.581v30.437c0 10.579-8.579 19.148-19.148 19.148h-19.998c10.569 0 19.148-8.569 19.148-19.148v-30.437z" fill="#838383"/></g><g><path d="m470.74 339.577h-429.48v-244.537c0-5.587 4.529-10.115 10.115-10.115h409.249c5.586 0 10.115 4.529 10.115 10.115v244.537z" fill="#f8f6f6"/></g><g><path d="m470.74 339.577h-429.48v-244.537c0-5.587 4.529-10.115 10.115-10.115h409.249c5.586 0 10.115 4.529 10.115 10.115v244.537z" fill="#b3dafe"/></g><g><path d="m470.738 95.037v244.545h-20.428v-244.545c0-5.58-4.53-10.109-10.119-10.109h20.438c5.579 0 10.109 4.529 10.109 10.109z" fill="#8ac9fe"/></g><g><path d="m485.354 42.917h-458.708c-14.693 0-26.646 11.952-26.646 26.645v300.46c0 14.692 11.953 26.646 26.646 26.646h184.1c-.499 2.835-1.132 6.23-1.909 9.997-.836 4.056 1.774 8.023 5.831 8.859 4.054.836 8.022-1.775 8.859-5.831 1.066-5.173 1.875-9.661 2.441-13.025h60.058c1.982 11.849 6.946 37.464 15.55 57.417h-91.15c1.246-2.887 2.458-5.989 3.629-9.294 1.384-3.904-.66-8.19-4.564-9.573-3.906-1.384-8.191.66-9.573 4.564-1.946 5.491-3.979 10.281-6.065 14.303h-41.672c-4.142 0-7.499 3.358-7.499 7.499 0 4.142 3.357 7.499 7.499 7.499h207.639c4.142 0 7.499-3.357 7.499-7.499s-3.357-7.499-7.499-7.499h-41.675c-8.967-17.244-14.497-43.884-16.885-57.417h184.095c14.693 0 26.646-11.953 26.646-26.646v-300.46c-.001-14.693-11.954-26.645-26.647-26.645zm11.647 327.105c0 6.422-5.225 11.647-11.647 11.647h-458.708c-6.422 0-11.647-5.225-11.647-11.647v-22.946h482.003v22.946zm0-37.944h-18.763v-237.038c0-9.713-7.901-17.615-17.614-17.615h-57.169c-4.142 0-7.499 3.358-7.499 7.499s3.357 7.499 7.499 7.499h57.169c1.442 0 2.616 1.174 2.616 2.616v237.038h-414.48v-237.037c0-1.442 1.174-2.616 2.616-2.616h316.974c4.142 0 7.5-3.358 7.5-7.499s-3.357-7.499-7.5-7.499h-316.975c-9.713 0-17.614 7.902-17.614 17.615v237.038h-18.762v-262.517c0-6.422 5.225-11.647 11.647-11.647h458.708c6.422 0 11.647 5.224 11.647 11.647z"/><path d="m137.971 198.851v35.849c0 4.142 3.357 7.499 7.499 7.499s7.499-3.358 7.499-7.499v-43.349c0-4.142-3.357-7.499-7.499-7.499h-9.266c-4.142 0-7.499 3.358-7.499 7.499 0 4.142 3.357 7.499 7.499 7.499h1.767z"/><path d="m201.006 258.499h-9.266c-4.142 0-7.499 3.358-7.499 7.499s3.357 7.499 7.499 7.499h1.766v35.85c0 4.142 3.357 7.499 7.499 7.499s7.499-3.357 7.499-7.499v-43.349c.001-4.142-3.356-7.499-7.498-7.499z"/><path d="m291.153 258.499h-9.266c-4.142 0-7.499 3.358-7.499 7.499s3.357 7.499 7.499 7.499h1.766v35.85c0 4.142 3.357 7.499 7.499 7.499s7.499-3.357 7.499-7.499v-43.349c.001-4.142-3.356-7.499-7.498-7.499z"/><path d="m333.285 258.499h-9.266c-4.142 0-7.499 3.358-7.499 7.499s3.357 7.499 7.499 7.499h1.766v35.85c0 4.142 3.357 7.499 7.5 7.499 4.142 0 7.499-3.357 7.499-7.499v-43.349c0-4.142-3.357-7.499-7.499-7.499z"/><path d="m237.566 242.199c4.142 0 7.499-3.358 7.499-7.499v-43.349c0-4.142-3.357-7.499-7.499-7.499h-9.266c-4.142 0-7.499 3.358-7.499 7.499 0 4.142 3.357 7.499 7.499 7.499h1.766v35.85c.001 4.142 3.358 7.499 7.5 7.499z"/><path d="m99.543 182.968c-11.047 0-20.034 8.987-20.034 20.034v20.047c0 11.047 8.987 20.035 20.034 20.035 11.048 0 20.035-8.988 20.035-20.035v-20.047c.001-11.047-8.987-20.034-20.035-20.034zm5.037 40.081c0 2.777-2.26 5.036-5.037 5.036s-5.036-2.259-5.036-5.036v-20.047c0-2.777 2.259-5.036 5.036-5.036s5.037 2.259 5.037 5.036z"/><path d="m99.543 257.614c-11.047 0-20.034 8.988-20.034 20.035v20.047c0 11.047 8.987 20.035 20.034 20.035 11.048 0 20.035-8.987 20.035-20.035v-20.047c.001-11.047-8.987-20.035-20.035-20.035zm5.037 40.082c0 2.777-2.26 5.036-5.037 5.036s-5.036-2.259-5.036-5.036v-20.047c0-2.777 2.259-5.037 5.036-5.037s5.037 2.26 5.037 5.037z"/><path d="m153.373 257.614c-11.047 0-20.034 8.988-20.034 20.035v20.047c0 11.047 8.987 20.035 20.034 20.035 11.048 0 20.035-8.987 20.035-20.035v-20.047c0-11.047-8.987-20.035-20.035-20.035zm5.036 40.082c0 2.777-2.26 5.036-5.037 5.036s-5.035-2.259-5.035-5.036v-20.047c0-2.777 2.258-5.037 5.035-5.037s5.037 2.26 5.037 5.037z"/><path d="m242.782 257.614c-11.048 0-20.035 8.988-20.035 20.035v20.047c0 11.047 8.987 20.035 20.035 20.035 11.047 0 20.034-8.987 20.034-20.035v-20.047c0-11.047-8.988-20.035-20.034-20.035zm5.035 40.082c0 2.777-2.259 5.036-5.036 5.036s-5.037-2.259-5.037-5.036v-20.047c0-2.777 2.26-5.037 5.037-5.037s5.036 2.26 5.036 5.037z"/><path d="m415.727 273.497h1.766v35.85c0 4.142 3.357 7.499 7.499 7.499s7.499-3.357 7.499-7.499v-43.349c0-4.142-3.357-7.499-7.499-7.499h-9.265c-4.142 0-7.499 3.358-7.499 7.499s3.356 7.499 7.499 7.499z"/><path d="m378.688 257.614c-11.048 0-20.035 8.988-20.035 20.035v20.047c0 11.047 8.987 20.035 20.035 20.035s20.035-8.987 20.035-20.035v-20.047c0-11.047-8.988-20.035-20.035-20.035zm5.036 40.082c0 2.777-2.26 5.036-5.037 5.036s-5.037-2.259-5.037-5.036v-20.047c0-2.777 2.26-5.037 5.037-5.037s5.037 2.26 5.037 5.037z"/><path d="m201.006 107.655h-9.266c-4.142 0-7.499 3.358-7.499 7.5s3.357 7.499 7.499 7.499h1.766v35.849c0 4.142 3.357 7.499 7.499 7.499s7.499-3.357 7.499-7.499v-43.348c.001-4.142-3.356-7.5-7.498-7.5z"/><path d="m281.887 122.654h1.766v35.849c0 4.142 3.357 7.499 7.499 7.499s7.499-3.357 7.499-7.499v-43.348c0-4.142-3.357-7.5-7.499-7.5h-9.266c-4.142 0-7.499 3.358-7.499 7.5.001 4.141 3.358 7.499 7.5 7.499z"/><path d="m324.019 122.654h1.766v35.849c0 4.142 3.357 7.499 7.5 7.499 4.142 0 7.499-3.357 7.499-7.499v-43.348c0-4.142-3.357-7.5-7.499-7.5h-9.266c-4.142 0-7.499 3.358-7.499 7.5 0 4.141 3.357 7.499 7.499 7.499z"/><path d="m99.543 106.771c-11.047 0-20.034 8.987-20.034 20.034v20.047c0 11.047 8.987 20.035 20.034 20.035 11.048 0 20.035-8.987 20.035-20.035v-20.047c.001-11.047-8.987-20.034-20.035-20.034zm5.037 40.082c0 2.777-2.26 5.036-5.037 5.036s-5.036-2.259-5.036-5.036v-20.047c0-2.777 2.259-5.036 5.036-5.036s5.037 2.259 5.037 5.036z"/><path d="m153.373 166.887c11.048 0 20.035-8.987 20.035-20.035v-20.047c0-11.047-8.987-20.034-20.035-20.034-11.047 0-20.034 8.987-20.034 20.034v20.047c0 11.048 8.987 20.035 20.034 20.035zm-5.036-40.082c0-2.777 2.258-5.036 5.035-5.036s5.037 2.259 5.037 5.036v20.047c0 2.777-2.26 5.036-5.037 5.036s-5.035-2.259-5.035-5.036z"/><path d="m242.782 106.771c-11.048 0-20.035 8.987-20.035 20.034v20.047c0 11.047 8.987 20.035 20.035 20.035 11.047 0 20.034-8.987 20.034-20.035v-20.047c0-11.047-8.988-20.034-20.034-20.034zm5.035 40.082c0 2.777-2.259 5.036-5.036 5.036s-5.037-2.259-5.037-5.036v-20.047c0-2.777 2.26-5.036 5.037-5.036s5.036 2.259 5.036 5.036z"/><path d="m415.727 122.654h1.766v35.849c0 4.142 3.357 7.499 7.499 7.499s7.499-3.357 7.499-7.499v-43.348c0-4.142-3.357-7.5-7.499-7.5h-9.265c-4.142 0-7.499 3.358-7.499 7.5 0 4.141 3.356 7.499 7.499 7.499z"/><path d="m378.688 106.771c-11.048 0-20.035 8.987-20.035 20.034v20.047c0 11.047 8.987 20.035 20.035 20.035s20.035-8.987 20.035-20.035v-20.047c0-11.047-8.988-20.034-20.035-20.034zm5.036 40.082c0 2.777-2.26 5.036-5.037 5.036s-5.037-2.259-5.037-5.036v-20.047c0-2.777 2.26-5.036 5.037-5.036s5.037 2.259 5.037 5.036z"/><path d="m188.47 182.968c-11.047 0-20.034 8.987-20.034 20.034v20.047c0 11.047 8.987 20.035 20.034 20.035 11.048 0 20.035-8.988 20.035-20.035v-20.047c0-11.047-8.987-20.034-20.035-20.034zm5.036 40.081c0 2.777-2.26 5.036-5.037 5.036s-5.036-2.259-5.036-5.036v-20.047c0-2.777 2.259-5.036 5.036-5.036s5.037 2.259 5.037 5.036z"/><path d="m387.953 242.199c4.142 0 7.499-3.358 7.499-7.499v-43.349c0-4.142-3.357-7.499-7.499-7.499h-9.266c-4.142 0-7.499 3.358-7.499 7.499 0 4.142 3.357 7.499 7.499 7.499h1.767v35.85c0 4.142 3.357 7.499 7.499 7.499z"/><path d="m415.727 198.851h1.766v35.849c0 4.142 3.357 7.499 7.499 7.499s7.499-3.358 7.499-7.499v-43.349c0-4.142-3.357-7.499-7.499-7.499h-9.265c-4.142 0-7.499 3.358-7.499 7.499 0 4.142 3.356 7.5 7.499 7.5z"/><path d="m284.176 182.968c-11.047 0-20.034 8.987-20.034 20.034v20.047c0 11.047 8.988 20.035 20.034 20.035 11.048 0 20.035-8.988 20.035-20.035v-20.047c0-11.047-8.987-20.034-20.035-20.034zm5.036 40.081c0 2.777-2.26 5.036-5.037 5.036s-5.036-2.259-5.036-5.036v-20.047c0-2.777 2.259-5.036 5.036-5.036s5.037 2.259 5.037 5.036z"/><path d="m337.7 181.581c-11.048 0-20.035 8.987-20.035 20.034v20.047c0 11.047 8.987 20.035 20.035 20.035 11.047 0 20.034-8.987 20.034-20.035v-20.047c0-11.047-8.988-20.034-20.034-20.034zm5.035 40.082c0 2.777-2.259 5.036-5.036 5.036s-5.037-2.259-5.037-5.036v-20.047c0-2.777 2.26-5.036 5.037-5.036s5.036 2.259 5.036 5.036z"/></g></g></svg>