<svg id="Capa_1" enable-background="new 0 0 512 512" height="512" viewBox="0 0 512 512" width="512" xmlns="http://www.w3.org/2000/svg"><g><g><path d="m478.691 224.567h-39.756c-3.651-16.317-10.094-31.583-18.798-45.279l28.112-28.052c2.691-2.691 2.691-7.053 0-9.744l-34.804-34.734c-2.691-2.681-7.033-2.681-9.724 0l-28.122 28.071c-13.726-8.684-29.022-15.116-45.369-18.768v-39.665c0-3.802-3.081-6.883-6.883-6.883h-49.22c-3.802 0-6.883 3.081-6.883 6.883v39.666c-16.347 3.652-31.643 10.084-45.369 18.768l-28.122-28.071c-2.681-2.681-7.033-2.681-9.724 0l-34.794 34.734c-2.701 2.691-2.701 7.053 0 9.744l28.101 28.052c-8.704 13.696-15.146 28.962-18.798 45.279h-39.756c-3.802 0-6.883 3.081-6.883 6.883v49.1c0 3.801 3.081 6.883 6.883 6.883h39.756c3.652 16.317 10.094 31.583 18.798 45.279l-28.101 28.052c-2.701 2.691-2.701 7.053 0 9.744l34.794 34.734c2.691 2.681 7.043 2.681 9.724 0l28.122-28.071c13.726 8.684 29.022 15.116 45.369 18.767v39.666c0 3.802 3.081 6.883 6.883 6.883h49.22c3.802 0 6.883-3.081 6.883-6.883v-39.666c16.347-3.651 31.643-10.084 45.369-18.767l28.122 28.071c2.691 2.681 7.033 2.681 9.724 0l34.804-34.734c2.691-2.691 2.691-7.053 0-9.744l-28.112-28.052c8.704-13.696 15.146-28.962 18.798-45.279h39.756c3.802 0 6.883-3.081 6.883-6.883v-49.1c0-3.803-3.081-6.884-6.883-6.884zm-179.953 117.248c-47.479 0-85.975-38.426-85.975-85.815s38.496-85.815 85.975-85.815 85.975 38.425 85.975 85.815-38.496 85.815-85.975 85.815z" fill="#b3dafe"/></g><g><path d="m478.691 224.567h-20.008c3.802 0 6.883 3.081 6.883 6.883v49.1c0 3.801-3.081 6.883-6.883 6.883h20.008c3.802 0 6.883-3.081 6.883-6.883v-49.1c0-3.802-3.081-6.883-6.883-6.883zm-30.442-83.074-34.804-34.734c-2.691-2.681-7.033-2.681-9.724 0l-5.142 5.132 29.662 29.602c2.691 2.691 2.691 7.053 0 9.744l-20.025 19.982c-4.63 4.62-5.669 11.719-2.591 17.491 4.284 8.032 7.824 16.518 10.529 25.367 1.905 6.232 7.653 10.49 14.169 10.49h8.611c-3.651-16.317-10.094-31.583-18.798-45.279l28.112-28.052c2.692-2.69 2.692-7.052.001-9.743zm0 219.27-28.112-28.052c8.704-13.696 15.146-28.962 18.798-45.279h-8.611c-6.517 0-12.264 4.258-14.169 10.49-2.705 8.85-6.246 17.336-10.529 25.367-3.078 5.771-2.039 12.87 2.591 17.491l20.025 19.982c2.691 2.691 2.691 7.053 0 9.744l-29.662 29.602 5.142 5.132c2.691 2.681 7.033 2.681 9.724 0l34.804-34.734c2.69-2.69 2.69-7.052-.001-9.743zm-118.019-244.7v-39.667c0-3.801-3.082-6.883-6.883-6.883h-20.008c3.802 0 6.883 3.081 6.883 6.883v41.215c0 6.521 4.263 12.272 10.501 14.173 7.034 2.144 13.839 4.811 20.371 7.957 7.924 3.816 17.405-.084 20.369-8.365l1.341-3.748c-10.224-5.103-21.149-9.014-32.574-11.565zm11.876 259.273c-6.84 3.36-13.985 6.194-21.383 8.449-6.238 1.901-10.501 7.652-10.501 14.173v37.646c0 3.802-3.081 6.883-6.883 6.883h20.008c3.801 0 6.883-3.082 6.883-6.883v-39.666c11.425-2.551 22.349-6.463 32.573-11.565l-.688-1.583c-3.351-7.707-12.465-11.16-20.009-7.454z" fill="#8ac9fe"/></g><g><g><path d="m265.52 504.497h-209.711c-16.23 0-29.387-13.157-29.387-29.387v-438.22c0-16.23 13.157-29.387 29.387-29.387h209.711c16.23 0 29.387 13.157 29.387 29.387v438.22c0 16.23-13.157 29.387-29.387 29.387z" fill="#b0e7c9"/></g><g><path d="m294.908 36.888v438.224c0 16.223-13.155 29.388-29.388 29.388h-20.095c16.223 0 29.388-13.165 29.388-29.388v-438.224c0-16.223-13.165-29.388-29.388-29.388h20.095c16.232 0 29.388 13.165 29.388 29.388z" fill="#91deb6"/></g><g><path d="m265.52 504.497h-209.711c-16.23 0-29.387-13.157-29.387-29.387v-51.089h268.485v51.089c0 16.23-13.157 29.387-29.387 29.387z" fill="#cecece"/></g><g><path d="m294.908 424.02v51.092c0 16.223-13.155 29.388-29.388 29.388h-20.095c16.223 0 29.388-13.165 29.388-29.388v-51.092z" fill="#bfbfbf"/></g></g><g><g><path d="m105.892 104.139h-45.641c-1.361 0-2.465-1.104-2.465-2.465v-45.64c0-1.361 1.104-2.465 2.465-2.465h45.641c1.361 0 2.465 1.104 2.465 2.465v45.641c0 1.361-1.104 2.464-2.465 2.464z" fill="#f8f6f6"/></g><g><path d="m183.485 104.139h-45.641c-1.361 0-2.465-1.104-2.465-2.465v-45.64c0-1.361 1.104-2.465 2.465-2.465h45.641c1.361 0 2.465 1.104 2.465 2.465v45.641c0 1.361-1.104 2.464-2.465 2.464z" fill="#fedba6"/></g><g><path d="m261.078 104.139h-45.641c-1.361 0-2.465-1.104-2.465-2.465v-45.64c0-1.361 1.104-2.465 2.465-2.465h45.641c1.361 0 2.465 1.104 2.465 2.465v45.641c0 1.361-1.103 2.464-2.465 2.464z" fill="#f8f6f6"/></g></g><g><g><path d="m105.892 188.969h-45.641c-1.361 0-2.465-1.104-2.465-2.465v-45.641c0-1.361 1.104-2.465 2.465-2.465h45.641c1.361 0 2.465 1.104 2.465 2.465v45.641c0 1.362-1.104 2.465-2.465 2.465z" fill="#fedba6"/></g><g><path d="m183.485 188.969h-45.641c-1.361 0-2.465-1.104-2.465-2.465v-45.641c0-1.361 1.104-2.465 2.465-2.465h45.641c1.361 0 2.465 1.104 2.465 2.465v45.641c0 1.362-1.104 2.465-2.465 2.465z" fill="#f8f6f6"/></g><g><path d="m261.078 188.969h-45.641c-1.361 0-2.465-1.104-2.465-2.465v-45.641c0-1.361 1.104-2.465 2.465-2.465h45.641c1.361 0 2.465 1.104 2.465 2.465v45.641c0 1.362-1.103 2.465-2.465 2.465z" fill="#fedba6"/></g></g><g><g><path d="m108.359 56.038v45.639c0 1.361-1.11 2.461-2.471 2.461h-18.117c1.361 0 2.471-1.1 2.471-2.461v-45.639c0-1.361-1.11-2.471-2.471-2.471h18.117c1.361 0 2.471 1.11 2.471 2.471z" fill="#ebebeb"/></g><g><path d="m185.951 56.038v45.639c0 1.361-1.1 2.461-2.471 2.461h-18.117c1.361 0 2.471-1.1 2.471-2.461v-45.639c0-1.361-1.11-2.471-2.471-2.471h18.117c1.371 0 2.471 1.11 2.471 2.471z" fill="#fece85"/></g><g><path d="m263.543 56.038v45.639c0 1.361-1.1 2.461-2.461 2.461h-18.127c1.371 0 2.471-1.1 2.471-2.461v-45.639c0-1.361-1.1-2.471-2.471-2.471h18.127c1.361 0 2.461 1.11 2.461 2.471z" fill="#ebebeb"/></g></g><g><g><path d="m108.359 140.863v45.639c0 1.361-1.11 2.471-2.471 2.471h-18.117c1.361 0 2.471-1.11 2.471-2.471v-45.639c0-1.36-1.11-2.461-2.471-2.461h18.117c1.361 0 2.471 1.1 2.471 2.461z" fill="#fece85"/></g><g><path d="m185.951 140.863v45.639c0 1.361-1.1 2.471-2.471 2.471h-18.117c1.361 0 2.471-1.11 2.471-2.471v-45.639c0-1.36-1.11-2.461-2.471-2.461h18.117c1.371 0 2.471 1.1 2.471 2.461z" fill="#ebebeb"/></g><g><path d="m263.543 140.863v45.639c0 1.361-1.1 2.471-2.461 2.471h-18.127c1.371 0 2.471-1.11 2.471-2.471v-45.639c0-1.36-1.1-2.461-2.471-2.461h18.127c1.361 0 2.461 1.1 2.461 2.461z" fill="#fece85"/></g></g><g><path d="m152.462 471.762h16.404c4.144 0 7.503-3.359 7.503-7.503s-3.359-7.503-7.503-7.503h-16.404c-4.144 0-7.503 3.359-7.503 7.503s3.359 7.503 7.503 7.503z"/><path d="m478.696 217.06h-33.873c-3.423-12.84-8.521-25.116-15.209-36.629l23.933-23.887c2.723-2.718 4.222-6.334 4.222-10.181 0-3.848-1.5-7.464-4.223-10.181l-34.8-34.734c-5.604-5.593-14.721-5.595-20.325 0l-23.966 23.92c-11.54-6.682-23.848-11.774-36.717-15.191v-33.781c0-7.932-6.454-14.385-14.386-14.385h-20.942v-25.121c0-20.341-16.549-36.89-36.89-36.89h-209.71c-20.341 0-36.89 16.549-36.89 36.89v49.229c0 4.144 3.359 7.503 7.503 7.503s7.503-3.359 7.503-7.503v-49.229c0-12.067 9.818-21.884 21.884-21.884h209.71c12.066 0 21.884 9.817 21.884 21.884v379.628h-253.478v-295.897c0-4.144-3.359-7.503-7.503-7.503s-7.503 3.359-7.503 7.503v354.489c0 20.341 16.549 36.89 36.89 36.89h209.71c20.341 0 36.89-16.549 36.89-36.89v-25.12h20.942c7.932 0 14.386-6.453 14.386-14.385v-33.781c12.87-3.417 25.177-8.509 36.717-15.191l23.966 23.92c5.604 5.592 14.722 5.593 20.324 0l34.802-34.734c2.723-2.718 4.222-6.334 4.222-10.181 0-3.848-1.5-7.464-4.223-10.181l-23.932-23.887c6.688-11.512 11.786-23.788 15.209-36.628h33.873c7.932 0 14.385-6.453 14.385-14.385v-49.109c0-7.934-6.453-14.388-14.385-14.388zm-191.292 258.05c0 12.067-9.818 21.884-21.884 21.884h-209.71c-12.067 0-21.884-9.817-21.884-21.884v-43.586h253.478zm190.67-195.176h-39.136c-3.511 0-6.553 2.436-7.321 5.862-3.417 15.242-9.408 29.673-17.81 42.891-1.887 2.969-1.459 6.85 1.032 9.335l27.666 27.614-33.921 33.857-27.687-27.633c-2.481-2.478-6.347-2.905-9.314-1.029-13.248 8.389-27.708 14.371-42.981 17.78-3.43.765-5.869 3.809-5.869 7.323v39.049h-20.323v-10.963-74.788c20.832-.819 40.875-8.576 56.795-22.068 3.162-2.679 3.552-7.414.874-10.575-2.679-3.161-7.414-3.552-10.575-.873-13.213 11.198-29.813 17.693-47.094 18.502v-156.433c41.57 1.921 74.799 36.264 74.799 78.215 0 12.443-2.835 24.335-8.428 35.346-1.876 3.695-.402 8.211 3.292 10.087 3.697 1.877 8.21.402 10.088-3.292 6.671-13.137 10.054-27.315 10.054-42.141 0-50.226-39.958-91.303-89.805-93.236v-85.748h20.322v39.049c0 3.514 2.438 6.557 5.869 7.323 15.273 3.41 29.734 9.392 42.981 17.78 2.965 1.877 6.833 1.449 9.314-1.029l27.687-27.633 33.921 33.857-27.666 27.614c-2.49 2.485-2.919 6.366-1.033 9.335 8.403 13.219 14.395 27.65 17.811 42.892.768 3.427 3.81 5.862 7.321 5.862h39.136v47.868z"/><path d="m60.251 111.642h45.641c5.496 0 9.968-4.472 9.968-9.968v-45.64c0-5.496-4.471-9.967-9.968-9.967h-45.641c-5.495 0-9.967 4.472-9.967 9.967v45.641c0 5.496 4.471 9.967 9.967 9.967zm5.039-50.57h35.563v35.564h-35.563z"/><path d="m137.844 111.642h45.641c5.497 0 9.968-4.472 9.968-9.968v-45.64c0-5.496-4.471-9.967-9.968-9.967h-45.641c-5.497 0-9.968 4.472-9.968 9.967v45.641c0 5.496 4.472 9.967 9.968 9.967zm5.038-50.57h35.564v35.564h-35.564z"/><path d="m215.438 111.642h45.641c5.497 0 9.968-4.472 9.968-9.968v-45.64c0-5.496-4.471-9.967-9.968-9.967h-45.641c-5.496 0-9.968 4.472-9.968 9.967v45.641c-.001 5.496 4.471 9.967 9.968 9.967zm5.038-50.57h35.564v35.564h-35.564z"/><path d="m50.284 186.504c0 5.496 4.472 9.968 9.967 9.968h45.641c5.496 0 9.968-4.472 9.968-9.968v-45.64c0-5.496-4.471-9.968-9.968-9.968h-45.641c-5.495 0-9.967 4.472-9.967 9.968zm15.006-40.602h35.563v35.564h-35.563z"/><path d="m127.876 186.504c0 5.496 4.471 9.968 9.968 9.968h45.641c5.497 0 9.968-4.472 9.968-9.968v-45.64c0-5.496-4.471-9.968-9.968-9.968h-45.641c-5.497 0-9.968 4.472-9.968 9.968zm15.006-40.602h35.564v35.564h-35.564z"/><path d="m205.469 186.504c0 5.496 4.472 9.968 9.968 9.968h45.641c5.497 0 9.968-4.472 9.968-9.968v-45.64c0-5.496-4.471-9.968-9.968-9.968h-45.641c-5.496 0-9.968 4.472-9.968 9.968zm15.007-40.602h35.564v35.564h-35.564z"/></g></g></svg>