<svg id="Capa_1" enable-background="new 0 0 512 512" height="512" viewBox="0 0 512 512" width="512" xmlns="http://www.w3.org/2000/svg"><g><g><path d="m406.428 136.522h-300.856c-35.633 0-64.519-28.886-64.519-64.519 0-35.633 28.886-64.519 64.519-64.519h300.856c35.633 0 64.519 28.886 64.519 64.519 0 35.633-28.886 64.519-64.519 64.519z" fill="#f8f6f6"/></g><g><path d="m406.428 265.561h-300.856c-35.633 0-64.519-28.886-64.519-64.519 0-35.633 28.886-64.519 64.519-64.519h300.856c35.633 0 64.519 28.886 64.519 64.519 0 35.633-28.886 64.519-64.519 64.519z" fill="#f8f6f6"/></g><g><path d="m406.428 394.599h-300.856c-35.633 0-64.519-28.886-64.519-64.519 0-35.633 28.886-64.519 64.519-64.519h300.856c35.633 0 64.519 28.886 64.519 64.519 0 35.633-28.886 64.519-64.519 64.519z" fill="#f8f6f6"/></g><g><path d="m470.948 72.004c0 17.821-7.224 33.945-18.898 45.62-11.674 11.674-27.799 18.899-45.62 18.899h-21.583c17.811 0 33.945-7.224 45.62-18.899 11.674-11.674 18.899-27.799 18.899-45.62 0-35.632-28.887-64.518-64.518-64.518h21.583c35.63 0 64.517 28.886 64.517 64.518z" fill="#ebebeb"/></g><g><path d="m470.948 201.041c0 17.821-7.224 33.945-18.898 45.62-11.674 11.674-27.799 18.898-45.62 18.898h-21.583c17.811 0 33.945-7.224 45.62-18.898 11.674-11.674 18.899-27.799 18.899-45.62 0-35.632-28.887-64.518-64.518-64.518h21.583c35.63-.001 64.517 28.886 64.517 64.518z" fill="#ebebeb"/></g><g><path d="m470.948 330.077c0 17.821-7.224 33.945-18.898 45.62-11.674 11.674-27.799 18.899-45.62 18.899h-21.583c17.811 0 33.945-7.224 45.62-18.899 11.674-11.674 18.899-27.799 18.899-45.62 0-35.632-28.887-64.518-64.518-64.518h21.583c35.63 0 64.517 28.887 64.517 64.518z" fill="#ebebeb"/></g><g><path d="m399.753 104.654h-287.507c-18.033 0-32.651-14.618-32.651-32.651 0-18.033 14.618-32.651 32.651-32.651h287.507c18.033 0 32.651 14.618 32.651 32.651 0 18.033-14.618 32.651-32.651 32.651z" fill="#cecece"/></g><g><path d="m399.753 233.693h-287.507c-18.033 0-32.651-14.618-32.651-32.651 0-18.033 14.618-32.651 32.651-32.651h287.507c18.033 0 32.651 14.618 32.651 32.651 0 18.032-14.618 32.651-32.651 32.651z" fill="#cecece"/></g><g><path d="m399.753 362.731h-287.507c-18.033 0-32.651-14.618-32.651-32.651 0-18.033 14.618-32.651 32.651-32.651h287.507c18.033 0 32.651 14.618 32.651 32.651 0 18.033-14.618 32.651-32.651 32.651z" fill="#cecece"/></g><g><path d="m432.403 72.004c0 9.02-3.652 17.182-9.559 23.089-5.917 5.907-14.079 9.559-23.089 9.559h-24.466c9.01 0 17.172-3.652 23.089-9.559 5.907-5.907 9.559-14.069 9.559-23.089 0-18.03-14.618-32.648-32.648-32.648h24.466c18.03 0 32.648 14.617 32.648 32.648z" fill="#bfbfbf"/></g><g><path d="m432.403 201.041c0 9.02-3.652 17.182-9.559 23.089-5.917 5.907-14.079 9.559-23.089 9.559h-24.466c9.01 0 17.172-3.652 23.089-9.559 5.907-5.907 9.559-14.069 9.559-23.089 0-18.03-14.618-32.648-32.648-32.648h24.466c18.03-.001 32.648 14.617 32.648 32.648z" fill="#bfbfbf"/></g><g><path d="m432.403 330.077c0 9.02-3.652 17.182-9.559 23.089-5.917 5.917-14.079 9.569-23.089 9.569h-24.466c9.01 0 17.172-3.652 23.089-9.569 5.907-5.907 9.559-14.069 9.559-23.089 0-18.03-14.618-32.648-32.648-32.648h24.466c18.03 0 32.648 14.618 32.648 32.648z" fill="#bfbfbf"/></g><g><path d="m269.373 477.771v-43.423h-26.746v43.423h-43.423v26.745h113.592v-26.745z" fill="#b0e7c9"/></g><g><path d="m256.608 434.348h12.762v43.425h-12.762z" fill="#91deb6"/></g><g><path d="m300.033 477.773h12.762v26.741h-12.762z" fill="#91deb6"/></g><g><path d="m399.754 112.138c22.13 0 40.135-18.005 40.135-40.135s-18.004-40.135-40.135-40.135h-287.508c-22.13 0-40.135 18.004-40.135 40.135s18.004 40.135 40.135 40.135zm-312.675-40.135c0-13.877 11.29-25.167 25.167-25.167h287.507c13.877 0 25.167 11.29 25.167 25.167s-11.29 25.167-25.167 25.167h-287.507c-13.877 0-25.167-11.29-25.167-25.167z"/><path d="m120.857 83.385c4.133 0 7.484-3.351 7.484-7.484v-7.796c0-4.133-3.351-7.484-7.484-7.484s-7.484 3.351-7.484 7.484v7.796c0 4.133 3.351 7.484 7.484 7.484z"/><path d="m153.648 83.385c4.133 0 7.484-3.351 7.484-7.484v-7.796c0-4.133-3.351-7.484-7.484-7.484s-7.484 3.351-7.484 7.484v7.796c0 4.133 3.351 7.484 7.484 7.484z"/><path d="m186.438 83.385c4.133 0 7.484-3.351 7.484-7.484v-7.796c0-4.133-3.351-7.484-7.484-7.484s-7.484 3.351-7.484 7.484v7.796c0 4.133 3.351 7.484 7.484 7.484z"/><path d="m478.431 201.042c0-28.246-16.357-52.732-40.088-64.519 23.732-11.787 40.088-36.273 40.088-64.519 0-39.703-32.301-72.004-72.003-72.004h-300.856c-39.703 0-72.003 32.301-72.003 72.003 0 28.246 16.356 52.732 40.088 64.519-23.732 11.787-40.088 36.274-40.088 64.519s16.356 52.732 40.088 64.52c-23.732 11.787-40.088 36.273-40.088 64.519 0 39.702 32.3 72.003 72.003 72.003h142.944v24.781h-5.889c-4.133 0-7.484 3.351-7.484 7.484v35.94h-35.94c-4.133 0-7.484 3.351-7.484 7.484v4.227h-104.689c-4.133 0-7.484 3.351-7.484 7.484s3.351 7.484 7.484 7.484h104.69v7.552c0 4.133 3.351 7.484 7.484 7.484h21.844c4.133 0 7.484-3.351 7.484-7.484s-3.351-7.484-7.484-7.484h-14.36v-11.778h35.94c4.133 0 7.484-3.351 7.484-7.484v-35.94h11.778v35.94c0 4.133 3.351 7.484 7.484 7.484h35.939v11.778h-49.313c-4.133 0-7.484 3.351-7.484 7.484s3.351 7.484 7.484 7.484h56.796c4.133 0 7.484-3.351 7.484-7.484v-7.552h104.69c4.133 0 7.484-3.351 7.484-7.484s-3.351-7.484-7.484-7.484h-104.691v-4.227c0-4.133-3.351-7.484-7.484-7.484h-35.939v-35.94c0-4.133-3.351-7.484-7.484-7.484h-5.889v-24.781h142.945c39.702 0 72.003-32.301 72.003-72.003 0-28.246-16.357-52.732-40.088-64.519 23.731-11.787 40.088-36.274 40.088-64.519zm-429.895-129.039c0-31.45 25.586-57.036 57.035-57.036h300.856c31.449 0 57.036 25.586 57.036 57.036 0 31.449-25.586 57.035-57.035 57.036h-300.858c-31.448-.001-57.034-25.587-57.034-57.036zm414.928 258.077c0 31.45-25.586 57.036-57.036 57.036h-300.856c-31.45 0-57.035-25.586-57.035-57.036 0-31.449 25.586-57.035 57.035-57.035h300.856c31.449 0 57.036 25.586 57.036 57.035zm-57.036-72.003h-300.856c-31.45 0-57.035-25.586-57.035-57.036 0-31.449 25.586-57.036 57.035-57.036h300.856c31.449 0 57.036 25.586 57.036 57.036s-25.587 57.036-57.036 57.036z"/><path d="m399.754 160.907h-52.954c-4.133 0-7.484 3.351-7.484 7.484s3.351 7.484 7.484 7.484h52.953c13.877 0 25.167 11.29 25.167 25.167s-11.29 25.167-25.167 25.167h-287.507c-13.877 0-25.167-11.29-25.167-25.167s11.29-25.167 25.167-25.167l199.989.002c4.133 0 7.484-3.351 7.484-7.484s-3.351-7.484-7.484-7.484l-199.989-.002c-22.13 0-40.135 18.004-40.135 40.135s18.004 40.135 40.135 40.135h287.507c22.13 0 40.135-18.004 40.135-40.135s-18.004-40.135-40.134-40.135z"/><path d="m113.373 197.143v7.796c0 4.133 3.351 7.484 7.484 7.484s7.484-3.351 7.484-7.484v-7.796c0-4.133-3.351-7.484-7.484-7.484-4.133.001-7.484 3.351-7.484 7.484z"/><path d="m146.164 197.143v7.796c0 4.133 3.351 7.484 7.484 7.484s7.484-3.351 7.484-7.484v-7.796c0-4.133-3.351-7.484-7.484-7.484-4.133.001-7.484 3.351-7.484 7.484z"/><path d="m178.954 197.143v7.796c0 4.133 3.351 7.484 7.484 7.484s7.484-3.351 7.484-7.484v-7.796c0-4.133-3.351-7.484-7.484-7.484-4.133.001-7.484 3.351-7.484 7.484z"/><path d="m112.246 289.945c-22.13 0-40.135 18.004-40.135 40.135s18.004 40.135 40.135 40.135h287.507c22.13 0 40.135-18.004 40.135-40.135s-18.004-40.135-40.135-40.135zm312.675 40.135c0 13.877-11.29 25.167-25.167 25.167h-287.508c-13.877 0-25.167-11.29-25.167-25.167s11.29-25.167 25.167-25.167h287.507c13.878 0 25.168 11.29 25.168 25.167z"/><path d="m120.857 318.698c-4.133 0-7.484 3.351-7.484 7.484v7.796c0 4.133 3.351 7.484 7.484 7.484s7.484-3.351 7.484-7.484v-7.796c0-4.133-3.351-7.484-7.484-7.484z"/><path d="m153.648 318.698c-4.133 0-7.484 3.351-7.484 7.484v7.796c0 4.133 3.351 7.484 7.484 7.484s7.484-3.351 7.484-7.484v-7.796c-.001-4.133-3.351-7.484-7.484-7.484z"/><path d="m186.438 318.698c-4.133 0-7.484 3.351-7.484 7.484v7.796c0 4.133 3.351 7.484 7.484 7.484s7.484-3.351 7.484-7.484v-7.796c0-4.133-3.351-7.484-7.484-7.484z"/></g></g></svg>