<?xml version="1.0" encoding="iso-8859-1"?>
<!-- Generator: Adobe Illustrator 19.0.0, SVG Export Plug-In . SVG Version: 6.00 Build 0)  -->
<svg xmlns="http://www.w3.org/2000/svg" xmlns:xlink="http://www.w3.org/1999/xlink" version="1.1" id="Capa_1" x="0px" y="0px" viewBox="0 0 504.123 504.123" style="enable-background:new 0 0 504.123 504.123;" xml:space="preserve">
<g>
	<path style="fill:#6A7270;" d="M314.77,104.062c0-8.684-6.132-19.314-13.615-23.631c-3.99-2.308-7.582-2.379-10.067-0.63   l-9.657,5.577v20.145l10.24,6.077v-9.838c2.284,3.954,5.36,7.456,8.759,9.665v7.404l10.047-5.793l0,0   C313.112,111.691,314.77,108.576,314.77,104.062z"/>
	<path style="fill:#6A7270;" d="M301.154,80.431c-0.154-0.091-0.303-0.169-0.457-0.252l-17.302,9.992v16.514l8.275,4.915v-9.838   c2.284,3.954,5.36,7.456,8.759,9.665v7.404l10.047-5.793l0,0c2.639-1.347,4.297-4.462,4.297-8.976   C314.77,95.378,308.641,84.748,301.154,80.431z"/>
	<path style="fill:#6A7270;" d="M291.107,117.697c-7.448-4.344-13.572-14.978-13.611-23.611c-0.039-8.661,6.057-12.193,13.54-7.877   c7.491,4.328,13.619,14.962,13.619,23.631S298.559,122.045,291.107,117.697z"/>
	<path style="fill:#6A7270;" d="M291.033,86.209c7.491,4.328,13.619,14.962,13.619,23.631s-6.093,12.209-13.544,7.857"/>
</g>
<polygon style="fill:#231F20;" points="297.641,119.178 297.886,198.325 274.664,211.732 274.664,132.439 "/>
<polygon style="fill:#474747;" points="251.695,198.467 274.664,211.732 274.664,132.439 251.447,119.032 "/>
<polygon style="fill:#858E8C;" points="251.695,198.467 251.695,224.992 343.58,278.185 343.58,251.589 "/>
<polygon style="fill:#EFB078;" points="366.301,238.253 366.301,264.779 343.58,278.185 343.58,251.589 "/>
<polyline style="fill:#E8A670;" points="343.58,278.185 343.58,251.589 366.301,238.253 "/>
<polygon style="fill:#B4C1BF;" points="297.886,198.325 366.301,238.253 343.58,251.589 274.786,211.732 "/>
<polyline style="fill:#C5D6D3;" points="274.786,211.732 297.886,198.325 366.301,238.253 "/>
<polygon style="fill:#5E5E5E;" points="251.447,119.032 274.664,105.767 297.641,119.178 274.664,132.439 "/>
<polygon style="fill:#474747;" points="298.74,357.951 298.988,410.86 275.767,424.263 275.767,371.216 "/>
<polygon style="fill:#070606;" points="252.798,410.998 275.767,424.263 275.767,371.216 252.55,357.809 "/>
<polyline style="fill:#474747;" points="275.767,371.216 252.55,357.809 252.798,410.998 "/>
<polygon style="fill:#9FA4A5;" points="184.009,477.385 275.893,424.33 321.839,450.859 229.951,503.906 "/>
<polygon style="fill:#070606;" points="252.798,410.998 252.798,437.524 298.988,464.191 298.988,437.599 "/>
<polygon style="fill:#474747;" points="321.709,424.263 321.709,450.788 298.988,464.191 298.988,437.599 "/>
<g>
	<polygon style="fill:#666564;" points="298.988,410.86 321.709,424.263 298.988,437.599 275.889,424.263  "/>
	<polygon style="fill:#666564;" points="206.978,358.093 298.866,305.038 298.866,358.093 206.978,411.14  "/>
</g>
<polyline style="fill:#474747;" points="206.978,411.14 206.978,358.093 298.866,305.038 "/>
<polygon style="fill:#070606;" points="161.036,331.563 206.978,358.093 206.978,411.14 161.036,384.614 "/>
<polygon style="fill:#9B5D1F;" points="161.036,331.563 252.924,278.516 298.866,305.038 206.978,358.093 "/>
<polygon style="fill:#DDE8E6;" points="206.978,198.94 298.866,145.885 298.866,305.038 206.978,358.093 "/>
<polyline style="fill:#B4C1BF;" points="206.978,358.093 206.978,198.94 298.866,145.885 "/>
<polygon style="fill:#474747;" points="246.957,178.318 263.247,168.917 263.247,275.082 246.957,284.483 "/>
<polyline style="fill:#070606;" points="246.957,284.483 246.957,178.318 263.247,168.917 "/>
<g>
	<polygon style="fill:#858E8C;" points="274.885,213.843 290.82,204.642 290.82,201.98 274.885,211.18  "/>
	<polygon style="fill:#858E8C;" points="161.036,172.414 206.978,198.94 206.978,358.093 161.036,331.563  "/>
	<polygon style="fill:#858E8C;" points="161.036,172.414 252.924,119.363 298.866,145.885 206.978,198.94  "/>
</g>
<polygon style="fill:#474747;" points="229.955,397.808 230.203,450.714 206.978,464.12 206.978,411.069 "/>
<polygon style="fill:#070606;" points="184.009,450.93 206.978,464.191 206.978,411.14 183.765,397.733 "/>
<polyline style="fill:#474747;" points="206.978,411.14 183.765,397.733 184.009,450.93 "/>
<polygon style="fill:#070606;" points="184.009,450.93 184.009,477.456 230.203,504.123 230.203,477.523 "/>
<g>
	<polygon style="fill:#474747;" points="252.924,464.191 252.924,490.717 230.203,504.123 230.203,477.523  "/>
	<polygon style="fill:#474747;" points="252.798,437.524 298.988,464.191 298.988,455.085 252.798,428.414  "/>
</g>
<polygon style="fill:#070606;" points="298.988,464.191 321.709,450.788 321.709,441.683 298.988,455.085 "/>
<polygon style="fill:#474747;" points="184.009,477.456 230.203,504.123 230.203,495.017 184.009,468.346 "/>
<polygon style="fill:#070606;" points="230.203,504.123 252.924,490.717 252.924,481.607 230.203,495.017 "/>
<polygon style="fill:#666564;" points="230.203,450.788 252.924,464.191 230.203,477.523 207.1,464.191 "/>
<polygon style="fill:#DDE8E6;" points="184.013,185.817 184.261,264.968 161.04,278.37 161.04,199.081 "/>
<g>
	<polygon style="fill:#858E8C;" points="138.071,265.106 161.04,278.37 161.04,199.081 137.823,185.679  "/>
	<polygon style="fill:#858E8C;" points="138.071,265.106 138.071,291.631 229.947,344.828 229.947,318.232  "/>
</g>
<polygon style="fill:#EFB078;" points="252.676,304.896 252.676,331.422 229.947,344.828 229.947,318.232 "/>
<polyline style="fill:#E8A670;" points="229.947,344.828 229.947,318.232 252.676,304.896 "/>
<polygon style="fill:#B4C1BF;" points="184.261,264.968 252.676,304.896 229.947,318.232 161.162,278.37 "/>
<polyline style="fill:#C5D6D3;" points="161.162,278.37 184.261,264.968 252.676,304.896 "/>
<polygon style="fill:#B4C1BF;" points="137.823,185.679 161.036,172.414 184.013,185.817 161.04,199.081 "/>
<polygon style="fill:#EFB078;" points="230.203,79.514 299.063,39.755 299.063,159.039 230.203,198.794 "/>
<polyline style="fill:#E8A670;" points="230.203,198.794 230.203,79.514 299.063,39.755 "/>
<polygon style="fill:#7A4826;" points="230.203,79.514 230.203,106.122 299.063,66.371 299.063,39.755 "/>
<polyline style="fill:#6B3D1E;" points="299.063,39.755 230.203,79.514 230.203,106.122 "/>
<polygon style="fill:#E2935D;" points="161.331,39.755 230.203,79.514 230.203,198.794 161.331,159.039 "/>
<polyline style="fill:#D68B54;" points="161.331,39.755 230.203,79.514 230.203,198.794 "/>
<polygon style="fill:#96562A;" points="206.978,92.893 230.203,106.295 230.203,79.514 161.331,39.755 161.331,159.039   206.978,185.391 "/>
<polyline style="fill:#7A4826;" points="206.978,185.391 206.978,92.893 230.203,106.295 230.203,79.514 161.331,39.755 "/>
<polygon style="fill:#C66E42;" points="161.331,39.755 230.203,0 299.063,39.755 230.203,79.514 "/>
<polyline style="fill:#BA6738;" points="299.063,39.755 230.203,79.514 161.331,39.755 "/>
<polygon style="fill:#A56032;" points="230.498,79.514 230.498,106.122 161.638,66.371 161.638,39.755 "/>
<polyline style="fill:#96562A;" points="161.638,39.755 230.498,79.514 230.498,106.122 "/>
<g>
	<polygon style="fill:#231F20;" points="239.533,138.626 239.533,155.676 254.377,147.113 254.271,130.123  "/>
	<polygon style="fill:#231F20;" points="274.885,118.075 274.885,135.129 289.729,126.562 289.627,109.568  "/>
</g>
<polygon style="fill:#333232;" points="237.332,454.955 237.332,458.713 226.001,465.254 226.001,461.493 "/>
<polygon style="fill:#474747;" points="234.031,453.092 237.332,454.999 226.005,461.536 222.708,459.626 "/>
<polyline style="fill:#070606;" points="222.708,459.626 226.001,461.536 226.001,465.254 222.7,463.344 "/>
<polygon style="fill:#333232;" points="246.296,460.103 246.296,463.86 234.965,470.406 234.965,466.641 "/>
<polygon style="fill:#474747;" points="242.995,458.248 246.296,460.15 234.965,466.684 231.672,464.778 "/>
<polyline style="fill:#070606;" points="231.672,464.778 234.965,466.684 234.965,470.406 231.664,468.5 "/>
<polygon style="fill:#333232;" points="306.857,415.291 306.857,419.052 295.53,425.594 295.53,421.829 "/>
<polygon style="fill:#474747;" points="303.561,413.432 306.857,415.338 295.534,421.876 292.234,419.97 "/>
<polyline style="fill:#070606;" points="292.234,419.97 295.53,421.876 295.53,425.594 292.23,423.688 "/>
<polygon style="fill:#333232;" points="315.817,420.447 315.817,424.204 304.486,430.746 304.486,426.984 "/>
<polygon style="fill:#474747;" points="312.517,418.584 315.817,420.494 304.49,427.028 301.194,425.118 "/>
<polyline style="fill:#070606;" points="301.194,425.118 304.486,427.028 304.486,430.746 301.186,428.839 "/>
<polygon style="fill:#AD2D00;" points="260.104,160.563 260.104,172.138 270.182,166.321 270.112,154.789 "/>
<polygon style="fill:#FF3C00;" points="270.781,235.555 277.984,231.4 277.984,221.999 287.137,216.722 287.137,226.115   293.829,222.251 293.829,234.669 287.137,238.533 287.137,247.934 277.984,253.219 277.984,243.814 270.781,247.977 "/>
<path style="fill:#858E8C;" d="M303.588,330.208c-0.685,0-1.347-0.35-1.709-0.985c-0.547-0.937-0.224-2.146,0.721-2.69l4.313-2.489  v-58.431l-38.802,22.863l-2.97-1.694v-78.769c0-1.091,0.878-1.969,1.969-1.969c1.083,0,1.969,0.878,1.969,1.969v75.323  l38.802-22.871l2.97,1.701v63.015l-0.985,1.705l-5.297,3.056C304.254,330.122,303.919,330.208,303.588,330.208z"/>
<path style="fill:#6A7270;" d="M196.021,250.994l-2.95-1.709v-94.44c0-1.091,0.878-1.969,1.969-1.969  c1.083,0,1.969,0.878,1.969,1.969v91.034l65.477-37.683l40.684-23.713V99.446c0-1.091,0.882-1.969,1.969-1.969  c1.087,0,1.969,0.878,1.969,1.969v86.17l-0.977,1.705l-51.066,29.692L196.021,250.994z"/>
<path style="fill:#DDE8E6;" d="M211.708,157.475c0-8.68-6.132-19.306-13.615-23.631c-3.99-2.3-7.582-2.375-10.067-0.626  l-9.653,5.573v20.145l10.24,6.077v-9.838c2.284,3.962,5.36,7.456,8.759,9.669v7.408l10.047-5.797v-0.004  C210.05,165.112,211.708,161.993,211.708,157.475z"/>
<path style="fill:#B4C1BF;" d="M198.093,133.845c-0.154-0.087-0.303-0.165-0.457-0.244l-17.302,9.984v16.522l8.275,4.907v-9.838  c2.284,3.962,5.36,7.456,8.759,9.669v7.408l10.047-5.797v-0.004c2.639-1.343,4.297-4.462,4.297-8.976  C211.708,148.795,205.58,138.169,198.093,133.845z"/>
<path style="fill:#858E8C;" d="M188.046,171.114c-7.448-4.348-13.572-14.978-13.611-23.615c-0.039-8.657,6.057-12.186,13.54-7.869  c7.491,4.324,13.619,14.962,13.619,23.623C201.59,171.93,195.497,175.47,188.046,171.114z"/>
<path style="fill:#6A7270;" d="M187.971,139.63c7.491,4.324,13.619,14.962,13.619,23.623c0,8.676-6.093,12.217-13.544,7.861"/>
<g>
</g>
<g>
</g>
<g>
</g>
<g>
</g>
<g>
</g>
<g>
</g>
<g>
</g>
<g>
</g>
<g>
</g>
<g>
</g>
<g>
</g>
<g>
</g>
<g>
</g>
<g>
</g>
<g>
</g>
</svg>
