<svg height="512pt" viewBox="0 -90 512 512" width="512pt" xmlns="http://www.w3.org/2000/svg"><path d="m389.644531 332.433594h-290.246093c-54.808594 0-99.398438-44.589844-99.398438-99.398438 0-48.34375 34.785156-89.113281 81.179688-97.714844 14.597656-77.933593 82.832031-135.320312 163.34375-135.320312 32.382812 0 63.777343 9.324219 90.78125 26.964844 23.476562 15.335937 42.597656 36.210937 55.761718 60.769531 66.816406.761719 120.933594 55.351563 120.933594 122.34375 0 67.46875-54.886719 122.355469-122.355469 122.355469zm0 0" fill="#91b6e3"/><path d="m391.066406 87.734375c-13.164062-24.558594-32.285156-45.433594-55.761718-60.769531-23.804688-15.550782-51.019532-24.625-79.316407-26.5625v332.03125h133.65625c67.46875 0 122.355469-54.886719 122.355469-122.355469 0-66.992187-54.117188-121.582031-120.933594-122.34375zm0 0" fill="#5877a6"/><path d="m271 332.433594v-125.824219l31.78125 31.78125c2.929688 2.929687 6.769531 4.394531 10.609375 4.394531 3.835937 0 7.675781-1.464844 10.605469-4.394531 5.859375-5.859375 5.859375-15.355469 0-21.214844l-57.390625-57.386719c-5.855469-5.859374-15.355469-5.859374-21.210938 0l-57.390625 57.386719c-5.859375 5.859375-5.859375 15.355469 0 21.214844 5.855469 5.855469 15.355469 5.855469 21.214844 0l31.78125-31.78125v125.824219zm0 0" fill="#ffe645"/><path d="m266.605469 159.789062c-2.929688-2.929687-6.773438-4.394531-10.613281-4.394531v177.039063h15.007812v-125.824219l31.78125 31.78125c2.929688 2.929687 6.769531 4.394531 10.609375 4.394531 3.835937 0 7.675781-1.464844 10.605469-4.394531 5.859375-5.859375 5.859375-15.355469 0-21.214844zm0 0" fill="#ffb500"/></svg>